<svg xmlns="http://www.w3.org/2000/svg" viewBox="0 0 800 400" role="img" aria-label="Hospital cover placeholder">
  <defs>
    <linearGradient id="sky4" x1="0" y1="0" x2="0" y2="1">
      <stop offset="0" stop-color="#EDF1F5"/>
      <stop offset="1" stop-color="#C3CFD9"/>
    </linearGradient>
  </defs>
  <rect width="800" height="400" fill="url(#sky4)"/>
  <ellipse cx="620" cy="90" rx="80" ry="24" fill="#ffffff" opacity="0.8"/>
  <ellipse cx="180" cy="70" rx="60" ry="20" fill="#ffffff" opacity="0.7"/>
  <rect y="320" width="800" height="80" fill="#B7C4D1"/>
  <rect x="250" y="130" width="300" height="190" rx="8" fill="#ffffff"/>
  <rect x="200" y="200" width="50" height="120" rx="6" fill="#F4F7FA"/>
  <rect x="550" y="200" width="50" height="120" rx="6" fill="#F4F7FA"/>
  <g fill="#617486" opacity="0.75">
    <rect x="270" y="150" width="30" height="30" rx="4"/>
    <rect x="308" y="150" width="30" height="30" rx="4"/>
    <rect x="346" y="150" width="30" height="30" rx="4"/>
    <rect x="384" y="150" width="30" height="30" rx="4"/>
    <rect x="422" y="150" width="30" height="30" rx="4"/>
    <rect x="460" y="150" width="30" height="30" rx="4"/>
    <rect x="498" y="150" width="30" height="30" rx="4"/>
    <rect x="270" y="190" width="30" height="30" rx="4"/>
    <rect x="498" y="190" width="30" height="30" rx="4"/>
  </g>
  <rect x="366" y="190" width="68" height="130" rx="6" fill="#123B5D"/>
  <rect x="388" y="210" width="28" height="28" rx="4" fill="#ffffff"/>
  <rect x="378" y="200" width="48" height="8" rx="4" fill="#2E8B68"/>
  <rect x="398" y="180" width="8" height="28" fill="#2E8B68"/>
</svg>
